<?xml version="1.0" encoding="utf-8"?>
<!-- Uploaded to: SVG Repo, www.svgrepo.com, Generator: SVG Repo Mixer Tools -->
<svg width="800px" height="800px" viewBox="0 0 1024 1024" class="icon"  version="1.1" xmlns="http://www.w3.org/2000/svg"><path d="M490.666667 554.666667m-341.333334 0a341.333333 341.333333 0 1 0 682.666667 0 341.333333 341.333333 0 1 0-682.666667 0Z" fill="#90CAF9" /><path d="M320.021333 554.666667a341.333333 170.645333 90 1 0 341.290667 0 341.333333 170.645333 90 1 0-341.290667 0Z" fill="none" /><path d="M775.125333 384.042667H206.229333M775.125333 725.333333H206.229333" fill="none" /><path d="M149.333333 554.666667h682.666667M490.666667 213.333333v682.666667" fill="none" /><path d="M807.424 427.946667C775.253333 477.12 746.666667 514.666667 746.666667 514.666667s-149.333333-196.074667-149.333334-279.082667c0-1.664 0.213333-3.264 0.256-4.906667a339.733333 339.733333 0 0 0-84.522666-16.213333c-0.618667 6.976-1.066667 13.994667-1.066667 21.12 0 100.885333 116.629333 264.938667 166.784 330.794667L746.666667 655.509333l67.882666-89.130666c4.992-6.549333 10.794667-14.314667 16.917334-22.656a340.544 340.544 0 0 0-24.042667-115.776z" fill="#1E88E5" /><path d="M747.242667 298.602667c-0.192 0.021333-0.362667 0.064-0.576 0.064a63.957333 63.957333 0 0 1-62.4-50.133334A359.914667 359.914667 0 0 0 490.666667 192C290.688 192 128 354.709333 128 554.666667c0 199.978667 162.688 362.666667 362.666667 362.666666s362.666667-162.688 362.666666-362.666666c0-99.861333-40.576-190.421333-106.090666-256.064zM490.666667 874.666667c-176.448 0-320-143.552-320-320s143.552-320 320-320 320 143.552 320 320-143.552 320-320 320z" fill="#1E88E5" /><path d="M746.666667 86.677333a149.333333 149.333333 0 0 0-149.333334 149.333334c0 82.474667 149.333333 277.333333 149.333334 277.333333s149.333333-194.858667 149.333333-277.333333a149.333333 149.333333 0 0 0-149.333333-149.333334zM746.666667 298.666667a64.021333 64.021333 0 0 1 0-128 64.021333 64.021333 0 0 1 0 128z" fill="#FF3D00" /></svg>